<svg xmlns="http://www.w3.org/2000/svg" width="350" height="500">
  <defs>
    <filter id="starBlur">
      <feGaussianBlur in="SourceGraphic" stdDeviation="0.8" />
    </filter>
  </defs>

  <g filter="url(#starBlur)">

    <circle cx="25" cy="30" r="1.1" fill="white"/>
    <circle cx="150" cy="20" r="1.5" fill="rgba(255,255,255,0.8)"/>
    <circle cx="320" cy="45" r="1.3" fill="white"/>
    <circle cx="250" cy="70" r="1.9" fill="rgba(255,255,200,0.7)"/>
    <circle cx="80" cy="90" r="1.0" fill="white"/>
    <circle cx="300" cy="110" r="1.6" fill="rgba(255,255,255,0.6)"/>
    <circle cx="20" cy="140" r="1.4" fill="white"/>
    <circle cx="190" cy="120" r="2.0" fill="white"/>

    <circle cx="340" cy="180" r="1.2" fill="white"/>
    <circle cx="50" cy="210" r="1.7" fill="rgba(255,255,255,0.9)"/>
    <circle cx="220" cy="220" r="1.4" fill="white"/>
    <circle cx="140" cy="250" r="1.1" fill="rgba(255,255,200,0.8)"/>
    <circle cx="310" cy="260" r="1.8" fill="white"/>
    <circle cx="25" cy="280" r="1.5" fill="rgba(255,255,255,0.7)"/>
    <circle cx="260" cy="300" r="2.1" fill="white"/>
    <circle cx="100" cy="310" r="1.3" fill="rgba(255,255,255,0.8)"/>

    <circle cx="330" cy="340" r="1.0" fill="white"/>
    <circle cx="40" cy="350" r="1.9" fill="rgba(255,255,200,0.7)"/>
    <circle cx="180" cy="360" r="1.5" fill="white"/>
    <circle cx="290" cy="380" r="1.2" fill="rgba(255,255,255,0.6)"/>
    <circle cx="70" cy="400" r="2.2" fill="white"/>
    <circle cx="230" cy="410" r="1.4" fill="white"/>
    <circle cx="340" cy="420" r="1.7" fill="rgba(255,255,255,0.9)"/>
    <circle cx="150" cy="430" r="1.1" fill="white"/>
    <circle cx="20" cy="440" r="1.6" fill="rgba(255,255,200,0.8)"/>
    <circle cx="270" cy="445" r="1.3" fill="white"/>

    <circle cx="5" cy="200" r="0.9" fill="rgba(255,255,255,0.7)"/>
    <circle cx="285" cy="160" r="1.4" fill="white"/>
    <circle cx="65" cy="240" r="1.2" fill="white"/>
    <circle cx="215" cy="330" r="1.8" fill="rgba(255,255,200,0.6)"/>
    <circle cx="315" cy="390" r="1.1" fill="white"/>
    <circle cx="165" cy="190" r="1.6" fill="rgba(255,255,255,0.8)"/>

  </g>
</svg>
