<svg aria-hidden="true" style="position: absolute; width: 0; height: 0; overflow: hidden;" version="1.1" xmlns="http://www.w3.org/2000/svg" xmlns:xlink="http://www.w3.org/1999/xlink">
<defs>
<symbol id="icon-cross" viewBox="0 0 20 20">
<path d="M14.348 14.849c-0.469 0.469-1.229 0.469-1.697 0l-2.651-3.030-2.651 3.029c-0.469 0.469-1.229 0.469-1.697 0-0.469-0.469-0.469-1.229 0-1.697l2.758-3.15-2.759-3.152c-0.469-0.469-0.469-1.228 0-1.697s1.228-0.469 1.697 0l2.652 3.031 2.651-3.031c0.469-0.469 1.228-0.469 1.697 0s0.469 1.229 0 1.697l-2.758 3.152 2.758 3.15c0.469 0.469 0.469 1.229 0 1.698z"></path>
</symbol>
<symbol id="icon-setting" viewBox="0 0 32 32">
<path d="M27.92 18.46l-1.14-0.92c-0.187-0.157-0.306-0.389-0.31-0.649v-1.691c0-0.001 0-0.002 0-0.003 0-0.261 0.12-0.494 0.308-0.646l0.002-0.001 1.11-0.89c0.64-0.528 1.045-1.322 1.045-2.21 0-0.535-0.147-1.035-0.402-1.463l0.007 0.013-1.12-1.88c-0.49-0.814-1.369-1.35-2.373-1.35-0.299 0-0.587 0.048-0.857 0.136l0.020-0.005-1.82 0.58c-0.068 0.023-0.147 0.037-0.229 0.037-0.154 0-0.296-0.047-0.414-0.128l0.002 0.002-1.23-0.81c-0.196-0.128-0.331-0.336-0.36-0.576l-0-0.004-0.24-1.6c-0.189-1.361-1.343-2.397-2.74-2.4h-2.25c-1.44 0.003-2.623 1.096-2.769 2.498l-0.001 0.012-0.16 1.49c-0.025 0.272-0.182 0.502-0.406 0.628l-0.004 0.002-1.59 0.85c-0.098 0.047-0.213 0.075-0.335 0.075s-0.237-0.027-0.34-0.077l0.005 0.002-1.25-0.48c-0.325-0.146-0.705-0.231-1.104-0.231-0.995 0-1.866 0.528-2.349 1.319l-0.007 0.012-1.14 1.9c-0.263 0.423-0.42 0.936-0.42 1.486 0 0.86 0.382 1.63 0.986 2.151l0.004 0.003 1.35 1.11c0.172 0.154 0.282 0.373 0.29 0.619l0 0.001v1.27c0 0.003 0 0.007 0 0.011 0 0.253-0.108 0.48-0.279 0.639l-0.001 0.001-1.41 1.32c-0.578 0.524-0.94 1.277-0.94 2.115 0 0.516 0.137 1.001 0.377 1.418l-0.007-0.014 1 1.84c0.484 0.848 1.383 1.41 2.413 1.41 0.362 0 0.709-0.070 1.026-0.196l-0.019 0.007 1.62-0.63c0.083-0.036 0.18-0.056 0.281-0.056 0.14 0 0.271 0.040 0.382 0.108l-0.003-0.002 1.4 0.84c0.201 0.114 0.343 0.313 0.379 0.546l0.001 0.004 0.32 1.66c0.258 1.308 1.395 2.28 2.76 2.28 0.004 0 0.007 0 0.011-0h2.149c1.395-0.006 2.548-1.035 2.748-2.375l0.002-0.015 0.26-1.65c0.040-0.256 0.188-0.47 0.396-0.598l0.004-0.002 1.3-0.74c0.095-0.045 0.207-0.071 0.325-0.071s0.23 0.026 0.33 0.073l-0.005-0.002 1.64 0.63c0.291 0.114 0.628 0.18 0.98 0.18 1.016 0 1.904-0.549 2.383-1.367l0.007-0.013 1.080-1.83c0.252-0.417 0.401-0.922 0.401-1.461 0-0.904-0.42-1.711-1.075-2.235l-0.006-0.004zM26.85 21.1l-1.080 1.83c-0.138 0.233-0.388 0.387-0.674 0.387-0.096 0-0.187-0.017-0.272-0.049l0.005 0.002-1.64-0.63c-0.289-0.112-0.623-0.177-0.973-0.177-0.507 0-0.982 0.136-1.39 0.374l0.013-0.007-1.3 0.74c-0.73 0.419-1.248 1.138-1.388 1.984l-0.002 0.016-0.26 1.66c-0.046 0.389-0.373 0.687-0.77 0.69h-2.12c-0.387-0.005-0.706-0.286-0.769-0.655l-0.001-0.005-0.32-1.66c-0.159-0.809-0.648-1.482-1.317-1.883l-0.013-0.007-1.4-0.84c-0.401-0.245-0.887-0.39-1.406-0.39-0.001 0-0.003 0-0.004 0h0c-0.361 0.004-0.704 0.074-1.020 0.197l0.020-0.007-1.62 0.64c-0.093 0.043-0.201 0.068-0.315 0.068-0.297 0-0.554-0.168-0.683-0.413l-0.002-0.004-1-1.84c-0.062-0.114-0.098-0.25-0.098-0.394 0-0.238 0.099-0.453 0.258-0.606l0-0 1.48-1.32c0.579-0.527 0.94-1.284 0.94-2.124 0-0.016-0-0.032-0-0.048l0 0.002v-1.27c-0.025-0.843-0.405-1.593-0.996-2.107l-0.004-0.003-1.37-1.17c-0.179-0.157-0.292-0.386-0.292-0.641 0-0.162 0.045-0.314 0.124-0.443l-0.002 0.004 1.14-1.86c0.131-0.238 0.381-0.397 0.668-0.397 0.121 0 0.235 0.028 0.337 0.079l-0.004-0.002 1.25 0.53c0.321 0.144 0.695 0.228 1.089 0.228 0.489 0 0.948-0.129 1.344-0.355l-0.013 0.007 1.61-0.89c0.77-0.452 1.3-1.241 1.389-2.159l0.001-0.011 0.16-1.46c0.041-0.395 0.369-0.702 0.769-0.71h2.241c0.403 0.003 0.733 0.306 0.78 0.696l0 0.004 0.23 1.61c0.112 0.837 0.573 1.549 1.23 1.994l0.010 0.006 1.23 0.8c0.412 0.264 0.915 0.422 1.455 0.422 0.321 0 0.629-0.056 0.914-0.158l-0.019 0.006 1.82-0.57c0.070-0.023 0.15-0.037 0.234-0.037 0.279 0 0.522 0.15 0.654 0.373l0.002 0.004 1.12 1.85c0.073 0.124 0.116 0.273 0.116 0.432 0 0.263-0.118 0.499-0.305 0.657l-0.001 0.001-1.11 0.91c-0.649 0.525-1.060 1.321-1.060 2.213 0 0.002 0 0.005 0 0.007v-0 1.69c0 0.003-0 0.006-0 0.009 0 0.883 0.407 1.671 1.045 2.186l0.005 0.004 1.14 0.92c0.183 0.159 0.299 0.392 0.299 0.652 0 0.154-0.040 0.298-0.111 0.423l0.002-0.004z"></path>
<path d="M16 11c-2.761 0-5 2.239-5 5s2.239 5 5 5c2.761 0 5-2.239 5-5v0c0-2.761-2.239-5-5-5v0zM16 19c-1.657 0-3-1.343-3-3s1.343-3 3-3c1.657 0 3 1.343 3 3v0c0.001 0.021 0.001 0.045 0.001 0.070 0 1.657-1.343 3-3 3-0 0-0.001 0-0.001 0h0z"></path>
</symbol>
<symbol id="icon-arrow" viewBox="0 0 32 32">
<path d="M19.609 16.943l-5.333 5.333c-0.24 0.232-0.566 0.374-0.926 0.374-0.736 0-1.333-0.597-1.333-1.333 0-0.36 0.143-0.687 0.375-0.927l4.39-4.39-4.391-4.391c-0.251-0.243-0.407-0.583-0.407-0.959 0-0.736 0.597-1.333 1.333-1.333 0.376 0 0.716 0.156 0.959 0.407l5.334 5.334c0.241 0.241 0.39 0.575 0.39 0.943s-0.149 0.701-0.39 0.943v0z"></path>
</symbol>
</defs>
</svg>
