<svg version="1.1" xmlns="http://www.w3.org/2000/svg" xmlns:xlink="http://www.w3.org/1999/xlink" width="30px" height="30px" viewBox="0,0,256,256"><defs><radialGradient cx="62.21577" cy="124.30092" r="70.58766" gradientUnits="userSpaceOnUse" id="color-1"><stop offset="0.314" stop-color="#888888"></stop><stop offset="0.662" stop-color="#6d6d6d"></stop><stop offset="0.972" stop-color="#505050"></stop></radialGradient><radialGradient cx="66.17995" cy="54.05838" r="73.85638" gradientUnits="userSpaceOnUse" id="color-2"><stop offset="0.214" stop-color="#b9b9b8"></stop><stop offset="0.328" stop-color="#c9c9c9"></stop><stop offset="0.487" stop-color="#d7d7d7"></stop><stop offset="0.672" stop-color="#e2e2e2"></stop><stop offset="0.793" stop-color="#e0e0e0"></stop><stop offset="0.822" stop-color="#e4e4e4"></stop><stop offset="0.863" stop-color="#eaeaea"></stop><stop offset="0.91" stop-color="#ffffff"></stop><stop offset="0.941" stop-color="#ffffff" stop-opacity="0"></stop></radialGradient></defs><g fill="none" fill-rule="nonzero" stroke="none" stroke-width="none" stroke-linecap="none" stroke-linejoin="none" stroke-miterlimit="10" stroke-dasharray="" stroke-dashoffset="0" font-family="none" font-weight="none" font-size="none" text-anchor="none" style="mix-blend-mode: normal"><g transform="translate(0.02644,0.00185) scale(2,2)"><g id="SVGRepo_bgCarrier" fill="#202020" stroke-width="0" stroke-linecap="butt" stroke-linejoin="miter" font-family="Inter, apple-system, BlinkMacSystemFont, &quot;Helvetica Neue&quot;, &quot;Segoe UI&quot;, &quot;Fira Sans&quot;, Roboto, Oxygen, Ubuntu, &quot;Droid Sans&quot;, Arial, sans-serif" font-weight="400" font-size="16" text-anchor="start"></g><g id="SVGRepo_tracerCarrier" fill="#202020" stroke-width="1" stroke-linecap="round" stroke-linejoin="round" font-family="Inter, apple-system, BlinkMacSystemFont, &quot;Helvetica Neue&quot;, &quot;Segoe UI&quot;, &quot;Fira Sans&quot;, Roboto, Oxygen, Ubuntu, &quot;Droid Sans&quot;, Arial, sans-serif" font-weight="400" font-size="16" text-anchor="start"></g><g id="SVGRepo_iconCarrier" stroke-width="1" stroke-linecap="butt" stroke-linejoin="miter"><path d="M35.56,40.73c-0.57,6.08 -0.97,16.84 2.62,21.42c0,0 -1.69,-11.82 13.46,-26.65c6.1,-5.97 7.51,-14.09 5.38,-20.18c-1.21,-3.45 -3.42,-6.3 -5.34,-8.29c-1.12,-1.17 -0.26,-3.1 1.37,-3.03c9.86,0.44 25.84,3.18 32.63,20.22c2.98,7.48 3.2,15.21 1.78,23.07c-0.9,5.02 -4.1,16.18 3.2,17.55c5.21,0.98 7.73,-3.16 8.86,-6.14c0.47,-1.24 2.1,-1.55 2.98,-0.56c8.8,10.01 9.55,21.8 7.73,31.95c-3.52,19.62 -23.39,33.9 -43.13,33.9c-24.66,0 -44.29,-14.11 -49.38,-39.65c-2.05,-10.31 -1.01,-30.71 14.89,-45.11c1.18,-1.08 3.11,-0.12 2.95,1.5z" fill="url(#color-1)"></path><path d="M76.11,77.42c-9.09,-11.7 -5.02,-25.05 -2.79,-30.37c0.3,-0.7 -0.5,-1.36 -1.13,-0.93c-3.91,2.66 -11.92,8.92 -15.65,17.73c-5.05,11.91 -4.69,17.74 -1.7,24.86c1.8,4.29 -0.29,5.2 -1.34,5.36c-1.02,0.16 -1.96,-0.52 -2.71,-1.23c-2.15762,-2.07141 -3.69516,-4.70323 -4.44,-7.6c-0.16,-0.62 -0.97,-0.79 -1.34,-0.28c-2.8,3.87 -4.25,10.08 -4.32,14.47c-0.22,13.57 10.99,24.57 24.55,24.57c17.09,0 29.54,-18.9 19.72,-34.7c-2.85,-4.6 -5.53,-7.61 -8.85,-11.88z" fill="url(#color-2)"></path></g></g></g></svg>